<?xml version="1.0" encoding="utf-8"?>
<svg xmlns="http://www.w3.org/2000/svg" viewBox="67.5458 148.5379 350.0001 166.2269" width="350px" height="166.227px">
  <defs>
    <linearGradient id="SvgjsLinearGradient1013" x1="0%" y1="0%" x2="100%" y2="0%">
      <stop offset="0" stop-color="#916027"/>
      <stop offset="0.5" stop-color="#eee393"/>
      <stop offset="1" stop-color="#916027"/>
    </linearGradient>
    <linearGradient id="SvgjsLinearGradient1016" x1="0%" y1="0%" x2="100%" y2="0%">
      <stop offset="0" stop-color="#916027"/>
      <stop offset="0.5" stop-color="#eee393"/>
      <stop offset="1" stop-color="#916027"/>
    </linearGradient>
    <linearGradient id="SvgjsLinearGradient1019" x1="0%" y1="0%" x2="100%" y2="0%">
      <stop offset="0" stop-color="#916027"/>
      <stop offset="0.5" stop-color="#eee393"/>
      <stop offset="1" stop-color="#916027"/>
    </linearGradient>
  </defs>
  <g id="SvgjsG1007" featurekey="symbolFeature-0" transform="matrix(1.5555260181427002, 0, 0, 1.5555260181427002, 164.7680206298828, 111.6423568725586)" fill="url(#SvgjsLinearGradient1013)">
    <path xmlns="http://www.w3.org/2000/svg" d="M37.493,50.25c-0.733,0-1.467-0.013-2.2,0.002C26.7,50.423,18.106,50.72,9.513,50.712c-3.464-0.003-5.189-2.557-4.267-6.02  c0.729-2.741,2.28-5.031,4.146-7.087c5.589-6.158,12.341-10.44,20.5-12.324c4.817-1.112,9.736-1.421,14.66-1.532  c6.225-0.14,12.431,0.22,18.623,0.883c8.172,0.874,15.847,3.231,22.747,7.76c1.787,1.173,3.294,2.776,4.917,4.196  c0.767,0.671,1.529,1.352,2.249,2.073c0.866,0.867,1.222,1.893,1.199,3.17c-0.019,1.082,0.383,2.166,0.537,3.258  c0.76,5.387-0.902,9.8-5.256,13.166c-4.097,3.167-8.775,5.148-13.626,6.776c-7.298,2.45-14.824,3.889-22.41,5.119  c-7.098,1.151-13.987,0.279-20.787-1.707c-1.345-0.393-2.658-1.134-3.785-1.981c-1.744-1.311-1.946-3.058-0.895-5.15  c1.354-2.694,3.394-4.859,5.414-7.043c1.277-1.381,2.517-2.797,3.774-4.198C37.332,50.13,37.412,50.19,37.493,50.25z M28.836,61.459  c0.207,0.121,0.35,0.223,0.507,0.294c4.342,1.985,8.908,3.145,13.644,3.638c4.692,0.489,9.382,0.177,14-0.605  c5.629-0.954,11.214-2.178,16.797-3.382c1.858-0.401,3.775-0.861,5.446-1.72c2.091-1.075,4.014-2.513,5.905-3.935  c2.246-1.69,4.195-3.696,5.464-6.258c0.72-1.453,0.992-2.98,0.619-4.669c-0.582,0.205-1.075,0.399-1.58,0.552  c-10.901,3.301-21.803,6.597-32.705,9.893c-1.173,0.355-2.332,0.779-3.528,1.022c-0.424,0.086-1.053-0.162-1.367-0.478  c-0.168-0.169,0.05-0.854,0.25-1.22c0.239-0.437,0.646-0.781,0.974-1.158c-0.78-1.842-0.168-4.442,1.209-5.923  c-0.063-0.739-0.249-1.292-0.13-1.769c1.26-5.016,2.573-10.018,3.857-15.027c0.142-0.554,0.392-0.751,0.997-0.689  c3.252,0.333,6.53,0.473,9.757,0.958c4.551,0.684,9.082,1.53,13.588,2.472c2.046,0.428,4.008,1.251,6.1,1.925  c-0.402-0.348-0.731-0.655-1.082-0.932c-4.824-3.808-10.403-6.053-16.256-7.637c-4.797-1.298-9.745-1.681-14.691-2.011  c-7.24-0.482-14.458-0.444-21.687,0.343c-6.677,0.727-12.632,3.115-18.047,7.012c-3.658,2.633-6.305,5.953-7.329,10.425  c-0.044,0.192-0.033,0.396-0.045,0.551c1.04-0.216,2.025-0.543,3.028-0.608c4.492-0.291,8.986-0.612,13.485-0.728  c7.57-0.195,15.144-0.242,22.716-0.349c0.246-0.003,0.492,0.024,0.917,0.046c-2.154,1.697-4.166,3.246-6.14,4.844  c-3.853,3.121-7.641,6.315-10.964,10.017C31.144,57.915,29.792,59.513,28.836,61.459z M52.604,55.405  c0.039,0.08,0.079,0.159,0.118,0.239c0.318-0.072,0.641-0.125,0.952-0.219c9.868-2.983,19.738-5.959,29.6-8.964  c2.627-0.8,5.304-1.507,7.82-2.582c3.131-1.337,3.255-3.387,0.59-5.544c-2.112-1.709-4.559-2.746-7.119-3.522  c-8.163-2.473-16.593-3.322-25.045-4.002c-0.198-0.016-0.56,0.297-0.619,0.517c-1.282,4.792-2.538,9.591-3.772,14.396  c-0.08,0.31-0.057,0.839,0.131,0.978c0.238,0.176,0.727,0.157,1.052,0.051c4.215-1.376,8.403-2.837,12.632-4.168  c5.669-1.784,11.309-3.696,17.195-4.677c2.079-0.346,4.076,0.039,5.829,1.229c1.565,1.062,1.331,2.915-0.396,3.674  c-0.299,0.132-0.592,0.285-0.902,0.385c-11.415,3.703-22.831,7.401-34.248,11.1c-0.766,0.248-1.511,0.292-2.249-0.127  c-0.129-0.073-0.425-0.039-0.53,0.062C53.27,54.598,52.947,55.011,52.604,55.405z M92.049,44.386c0.04,0.861,0.15,1.642,0.097,2.411  c-0.144,2.079-1.097,3.836-2.353,5.441c-2.463,3.148-5.636,5.457-9.011,7.509c-0.837,0.509-1.712,1.041-2.643,1.299  c-8.686,2.414-17.46,4.388-26.476,5.111c-5.764,0.462-11.445,0.093-16.991-1.612c-2.079-0.639-4.107-1.445-6.163-2.177  c-0.637,1.311-0.435,2.618,0.883,3.51c1.224,0.828,2.573,1.648,3.983,1.99c3.194,0.775,6.449,1.33,9.702,1.821  c1.832,0.276,3.739,0.507,5.563,0.308c8.447-0.922,16.786-2.47,24.923-4.967c5.173-1.587,10.191-3.53,14.667-6.676  c4.175-2.934,6.423-6.802,5.999-12.006c-0.087-1.072-0.308-2.134-0.481-3.296C93.064,43.589,92.548,43.994,92.049,44.386z   M40.073,48.085c-1.591,0-3.199-0.04-4.805,0.008c-3.422,0.104-6.841,0.28-10.263,0.379c-4.111,0.12-8.224,0.235-12.336,0.248  c-0.889,0.003-1.831-0.321-2.655-0.7c-1.064-0.49-1.145-1.54-0.3-2.351c0.901-0.865,1.936-1.567,3.183-1.71  c3.093-0.353,6.197-0.86,9.296-0.858c7.327,0.003,14.654,0.231,21.979,0.456c1.215,0.037,2.131-0.221,2.936-1.208  c-0.768,0-1.474-0.012-2.18,0.002c-1.982,0.041-3.964,0.119-5.946,0.137c-8.555,0.077-17.112-0.142-25.653,0.683  c-2.73,0.264-4.773,1.575-6.662,3.309c-0.865,0.794-0.827,1.845,0.149,2.45c0.856,0.531,1.91,1.065,2.871,1.054  c9.192-0.108,18.382-0.36,27.574-0.488C38.571,49.479,39.344,48.859,40.073,48.085z M74.372,47.746  c-0.628-0.876-0.932-0.922-1.75-0.491c-0.44,0.232-0.945,0.489-1.417,0.482c-1.216-0.018-2.43-0.197-3.647-0.266  c-0.302-0.017-0.685,0.052-0.907,0.233c-0.901,0.735-1.709,1.588-2.637,2.284c-0.896,0.672-1.896,1.204-2.851,1.798  c0.02,0.049,0.039,0.098,0.059,0.147C65.596,50.541,69.969,49.148,74.372,47.746z M22.885,43.973c-1.433,0-2.691-0.026-3.946,0.016  c-0.392,0.013-0.98-0.115-0.992,0.604c-0.011,0.631-0.11,1.305,0.702,1.558c1.476,0.46,2.956,0.911,4.563,1.406  C23.098,46.316,22.992,45.143,22.885,43.973z M82.63,40.49c-0.058-0.167-0.117-0.333-0.175-0.5c-0.559-0.017-1.135-0.13-1.672-0.031  c-0.958,0.176-1.896,0.469-2.836,0.735c-0.869,0.245-1.27,1.249-0.846,2.019c0.309,0.562,0.583,1.144,0.895,1.762  C79.548,43.14,81.089,41.815,82.63,40.49z M75.273,47.401c2.133-1.324,2.483-2.593,1.157-4.226  c-2.385,3.104-2.385,3.104-4.867,1.126c-0.678,0.826-1.356,1.653-2.148,2.619c1.205,0.322,2.025,0.136,2.87-0.275  c0.476-0.232,1.113-0.403,1.595-0.279C74.378,46.493,74.776,47.011,75.273,47.401z M86.812,41.122  c0.392,0.224,0.67,0.464,0.989,0.549c0.827,0.219,1.67,0.488,2.512,0.506c0.548,0.012,1.217-0.256,1.629-0.624  c0.482-0.431,0.269-1.044-0.187-1.496c-0.946-0.94-2.18-1.163-3.424-1.338c-0.143-0.02-0.39,0.074-0.45,0.188  C87.537,39.56,87.233,40.236,86.812,41.122z M62.04,50.605c1.29-1.055,2.6-2.087,3.858-3.178c0.495-0.429,0.576-0.959-0.054-1.434  c-1.426-1.076-3.05-0.79-3.992,0.703C63.349,47.933,61.924,49.147,62.04,50.605z M55.152,53.629c0.767-0.836,1.24-1.591,1.917-2.028  c0.79-0.51,0.855-1.01,0.361-1.519c-0.947-0.499-1.895-0.998-2.994-1.577c-0.251,0.897-0.571,1.899-0.806,2.921  C53.338,52.704,54.11,53.598,55.152,53.629z M29.534,43.871c-2.022,0-3.893,0-5.861,0c0.125,1.325,0.242,2.564,0.359,3.803  c0.724,0,1.345,0,1.971,0c-0.2-1.758,0.333-2.578,1.852-2.619C28.689,45.033,29.096,44.633,29.534,43.871z M71.08,43.678  c-0.457-0.607-1.12-0.548-1.753-0.357c-1.44,0.434-2.864,0.923-4.269,1.382c0.548,0.364,1.326,0.604,1.579,1.107  c0.51,1.017,1.354,0.971,1.947,1.086C69.477,45.744,70.27,44.721,71.08,43.678z M10.572,37.461  c-2.293,1.895-4.769,6.361-4.755,8.701c0.308-0.279,0.554-0.613,0.885-0.781c1.42-0.72,1.933-1.913,2.255-3.424  C9.293,40.386,10.037,38.901,10.572,37.461z M33.803,47.578c0.099-0.709,0.16-1.151,0.243-1.746c-2.074,0-3.99-0.004-5.906,0.004  c-0.268,0.001-0.64-0.04-0.781,0.11c-0.269,0.286-0.508,0.679-0.572,1.06c-0.089,0.529,0.329,0.582,0.772,0.579  C29.594,47.569,31.632,47.578,33.803,47.578z M76.474,41.399c-0.077-0.072-0.153-0.143-0.23-0.215  c-1.663,0.504-3.326,1.009-5.122,1.553c0.669,0.655,1.27,1.234,1.86,1.824c0.598,0.598,1.188,0.584,1.646-0.111  C75.282,43.458,75.863,42.418,76.474,41.399z M77.168,46.596c0.055,0.066,0.111,0.132,0.166,0.197  c1.738-0.576,3.46-1.208,5.221-1.705c0.849-0.24,1.027-0.704,0.96-1.497c-1.055,0.38-2.054,0.74-3.139,1.13c0-0.463,0-0.808,0-1.153  c-0.069-0.048-0.137-0.095-0.206-0.143C79.169,44.482,78.169,45.539,77.168,46.596z M58.208,50.201  c0.428,0.528,0.735,1.106,1.215,1.394c0.182,0.109,0.928-0.357,1.133-0.721c0.492-0.873,0.83-1.835,1.194-2.775  c0.057-0.148-0.075-0.369-0.12-0.557c-0.207,0.053-0.454,0.052-0.616,0.168c-0.724,0.523-1.435,1.064-2.124,1.631  C58.66,49.532,58.508,49.817,58.208,50.201z M55.385,47.922c0.817,1.074,1.702,1.466,2.573,1.017c1.319-0.679,2.423-1.642,3.41-3.02  C59.269,46.622,57.37,47.257,55.385,47.922z M39.435,46.089c0.52,0.308,0.856,0.592,1.242,0.708  c0.315,0.094,0.777,0.111,1.024-0.057c0.686-0.469,1.294-1.053,1.933-1.592c-0.726-1.225-1.982-1.05-2.972-0.872  C40.167,44.364,39.85,45.436,39.435,46.089z M35.967,44.648c0.011-0.134,0.021-0.267,0.032-0.401  c-0.321-0.083-0.64-0.225-0.965-0.239c-1.196-0.051-2.398-0.004-3.588-0.104c-0.868-0.073-1.349,0.233-1.562,1.134  C31.958,45.278,33.989,45.294,35.967,44.648z M84.84,39.975c-1.507,0.558-3.706,2.82-3.493,3.622  c0.813-0.301,1.635-0.571,2.429-0.906C84.839,42.244,85.24,41.216,84.84,39.975z M13.175,46.402  c-0.556-0.482-1.158-1.207-1.328-1.116c-0.691,0.367-1.33,0.92-1.821,1.537c-0.215,0.271,1.157,1.238,1.846,1.017  C12.347,47.687,12.654,47.008,13.175,46.402z M34.748,47.192c1.572,0,3.091,0,4.609,0c0.006-0.08,0.012-0.161,0.018-0.241  c-1.467-0.456-2.778-1.511-4.48-1.165c-0.067,0.448-0.127,0.801-0.17,1.156C34.712,47.05,34.745,47.165,34.748,47.192z   M15.275,44.331c0,0.845,0,1.691,0,2.542c1.744-0.378,1.949-0.679,1.826-2.752C16.516,44.188,15.935,44.255,15.275,44.331z   M21.054,47.906c0.019-0.051,0.037-0.101,0.056-0.152c-1.088-0.368-2.173-0.743-3.265-1.096c-0.121-0.039-0.297,0.005-0.419,0.067  c-0.701,0.355-1.394,0.726-2.259,1.181C17.256,47.906,19.155,47.906,21.054,47.906z M82.795,39.369  c0.419,0.853,0.721,0.415,1.119,0.215c0.393-0.197,0.956-0.376,1.308-0.231c0.286,0.118,0.485,0.719,0.514,1.121  c0.039,0.537-0.124,1.089-0.209,1.704c0.367-0.026,0.684-0.049,1.058-0.076c-0.731-1.26,0.093-2.27,0.479-3.525  C85.584,38.851,84.232,39.102,82.795,39.369z M84.249,44.52c1.4-0.479,2.707-0.927,4.014-1.375c-0.007-0.079-0.013-0.158-0.02-0.237  c-0.854,0-1.71-0.046-2.56,0.011C84.48,42.999,84.384,43.133,84.249,44.52z M38.817,45.831c0.218-0.57,0.422-1.101,0.643-1.678  c-0.982,0-1.838,0-2.724,0c0,0.338,0,0.627,0,0.938C37.424,45.336,38.089,45.572,38.817,45.831z M12.693,44.79  c1.241,0.964,1.019,2.017,0.508,3.084c0.48,0,0.817,0,1.175,0c0-1.169,0-2.262,0-3.432C13.862,44.549,13.407,44.643,12.693,44.79z   M56.328,53.127c0.052,0.095,0.105,0.19,0.157,0.285c0.927-0.29,1.854-0.58,2.853-0.893c-0.433-0.303-0.771-0.54-1.207-0.846  C57.551,52.141,56.94,52.634,56.328,53.127z"/>
  </g>
  <g id="SvgjsG1008" featurekey="nameFeature-0" transform="matrix(1.4040579795837402, 0, 0, 1.4040579795837402, 65.89540100097656, 221.88113403320312)" fill="url(#SvgjsLinearGradient1016)">
    <path d="M7.64 23.16 l6.08 4 c4.88 3.16 5.72 7.32 3.8 10.32 c-0.36 0.56 -0.84 1.04 -1.48 1.48 c-1.12 0.76 -2.88 1.48 -5.76 1.48 c-3.04 0 -5.16 -0.48 -6.6 -1 c-0.84 -0.28 -1.56 -0.64 -2.12 -1.04 l0 -7.04 l0.04 0 l-0.04 -0.04 c0 -0.48 0.4 -0.84 0.88 -0.84 c0.44 0 0.88 0.36 0.88 0.84 c0 0.52 -0.44 0.88 -0.88 0.88 c-0.16 0 -0.28 -0.04 -0.36 -0.08 c0.52 4.16 2.32 7.84 8.2 7.84 c5.6 0 6.24 -6.16 2 -9.24 l-6.08 -3.92 c-3.44 -2.28 -6.76 -5.56 -4 -9.92 c0.36 -0.52 0.88 -1 1.52 -1.44 c1.08 -0.76 2.84 -1.44 5.4 -1.44 c2.68 0 4.72 0.44 6.16 0.88 c0.84 0.28 1.6 0.56 2.2 0.88 l0 6.08 l0 0.08 c0 0.44 -0.36 0.88 -0.84 0.88 c-0.52 0 -0.88 -0.44 -0.88 -0.88 c0 -0.48 0.36 -0.92 0.88 -0.92 c0.04 0 0.12 0.08 0.24 0.08 c-0.52 -3.32 -2.12 -6.6 -7.76 -6.6 c-3.96 0 -6.96 5.12 -1.48 8.68 z M48.778999999999996 32.36 l0.48 0 l0 7.64 l-18.44 0 l0 -0.48 c1.56 0 2 -1.24 2 -3.8 l0 -17.6 c0 -1.88 -0.24 -2.96 -1.16 -3.32 c0 0.04 0.04 0.12 0.04 0.24 c0 0.48 -0.4 0.84 -0.88 0.84 s-0.88 -0.36 -0.88 -0.84 s0.4 -0.88 0.88 -0.88 l17.96 0 l0 6.64 c0 0.6 -0.28 0.88 -0.88 0.88 c-0.48 0 -0.84 -0.36 -0.84 -0.88 s0.36 -0.88 0.84 -0.88 c0.12 0 0.24 0 0.32 0.04 c-0.96 -5.28 -6.8 -5.32 -9.64 -5.32 l-1.96 0 l0 11.48 l2.32 0 c1 0 4.88 0.12 5.08 -2.92 l0.48 0 l0 3.44 l-8 0 l0 0.64 l8 0 l0 3.44 l-0.48 0 c-0.2 -3.08 -4.12 -2.92 -5.08 -2.92 l-2.32 0 l0 11.72 l1.64 0 c3.32 0 9.72 0.2 10.52 -7.16 z M78.318 33.72 l2.8 3.76 c1.72 2.12 4.36 2.04 4.88 2.04 l0 0.48 l-3.92 0 c-3.92 0 -4.88 -1.04 -8.68 -6.68 c-1.44 -2.04 -2.8 -3.92 -3.56 -4.92 l-2.48 2.96 l0 4.76 c0 2.56 0.88 3.4 2.48 3.4 l0 0.48 l-8.6 0 l0 -0.48 c1.56 0 2.4 -0.84 2.4 -3.4 l0 -18.64 c0 -1.88 -0.52 -2.6 -1.6 -2.88 c0.04 0.16 0.08 0.28 0.08 0.4 c0 0.44 -0.4 0.8 -0.88 0.8 s-0.88 -0.36 -0.88 -0.8 c0 -0.52 0.4 -0.88 0.88 -0.88 l8.44 0 c0.48 0 0.84 0.4 0.84 0.88 c0 0.44 -0.44 0.8 -0.88 0.8 c-0.52 0 -0.92 -0.36 -0.92 -0.8 c0 -0.12 0.04 -0.24 0.04 -0.28 c-0.84 0.28 -1.4 0.88 -1.4 2.76 l0 12.44 c0.52 -0.64 1.2 -1.32 1.68 -1.92 l0.84 -1 l4.08 -4.92 c2.12 -2.44 6.32 -7.52 0.84 -7.52 l0 -0.44 l10.16 0 c0.48 0 0.84 0.36 0.84 0.88 c0 0.44 -0.36 0.8 -0.84 0.8 s-0.92 -0.36 -0.92 -0.8 c0 -0.12 0.04 -0.28 0.12 -0.4 c-2.36 0.2 -4.72 1.96 -11.88 11.04 c2.12 2.88 4.32 5.84 6.04 8.08 z M119.05700000000002 14.239999999999998 l0 6.44 l0 0.04 c0 0.48 -0.36 0.88 -0.84 0.88 s-0.88 -0.4 -0.88 -0.88 s0.4 -0.88 0.88 -0.88 c0.12 0 0.2 0.04 0.32 0.04 c-0.64 -5.12 -6.2 -5.16 -6.68 -5.16 l-2.2 0 l0 21.72 c0 2.4 1.16 3.08 2.72 3.08 l0 0.48 l-8.96 0 l0 -0.48 c1.56 0 2.64 -0.68 2.64 -3.08 l0 -21.72 l-2.16 0 c-1.08 0 -6.16 0.04 -6.68 5.16 c0.08 -0.04 0.2 -0.04 0.32 -0.04 c0.52 0 0.88 0.36 0.88 0.84 c0 0.6 -0.28 0.88 -0.88 0.88 c-0.48 0 -0.84 -0.36 -0.84 -0.88 l0 -6.44 l22.36 0 z M146.956 36.96 c1.04 2.4 1.88 2.52 2.84 2.52 l0 0.48 l-8.36 0 l0 -0.48 c1.96 0 1.6 -2.08 0.76 -4.08 l-1.16 -3.2 l-9.56 0 c-0.96 2.88 -2.68 7.48 2.44 7.28 l0 0.48 l-8.12 0 l0 -0.48 c1.4 0 2.28 -0.24 5.44 -8.6 l5.36 -14.64 l0.68 -2.04 l2.08 0 l1.52 0 l1.4 0 c0.48 0 0.8 0.4 0.8 0.88 s-0.4 0.84 -0.88 0.84 c-0.44 0 -0.88 -0.36 -0.88 -0.84 c0 -0.16 0.08 -0.24 0.12 -0.36 c-1.4 0.2 -1.48 1.08 -1.04 2.56 c0 0.04 0.04 0.36 6.28 18.8 c0.12 0.32 0.16 0.52 0.2 0.68 c0.04 0.12 0.04 0.16 0.08 0.2 z M140.55599999999998 30.8 l-4.32 -12 l-4.36 12 l8.68 0 z M131.596 31.72 l9.32 0 l-0.24 -0.44 l-8.96 0 z M175.415 14.16 l6.52 0 c0.48 0 0.88 0.4 0.88 0.92 c0 0.44 -0.4 0.8 -0.88 0.8 s-0.88 -0.36 -0.88 -0.8 l0 -0.16 c-0.92 0.44 -0.92 1.52 -0.92 4.36 l0 15.72 c0 3 -0.08 4 1.8 4.52 l0 0.48 l-6.52 0 l0 -0.48 c1.08 -0.32 1.08 -1.24 1.08 -4.52 l0 -6.32 l-10.08 0 l0 6.32 c0 3.72 0.04 4.2 1.12 4.52 l0 0.48 l-6.52 0 l0 -0.48 c1.92 -0.52 1.8 -0.96 1.8 -4.52 l0 -15.72 c0 -2.68 -0.04 -3.8 -0.96 -4.32 l0 0.12 c0 0.44 -0.4 0.8 -0.84 0.8 c-0.48 0 -0.92 -0.36 -0.92 -0.8 c0 -0.52 0.44 -0.92 0.92 -0.92 l6.52 0 l0 0.48 c-1.08 0.32 -1.12 1.04 -1.12 4.64 l0 7.64 l10.08 0 l0 -7.64 c0 -3.6 0 -4.32 -1.08 -4.64 l0 -0.48 z M176.495 28.04 l0 -0.56 l-10.08 0 l0 0.56 l10.08 0 z M210.35399999999998 14.239999999999998 l9.48 0 l0 0.44 c-4.8 0 -4.68 3.28 -4.68 6.68 l0 9.96 c0 6.52 -4.4 8.92 -8.88 8.92 c-4.68 0 -8.44 -3.12 -8.44 -9.08 l0 -13.28 c0 -2.04 -0.68 -2.88 -1.76 -3.08 c0.04 0.04 0.04 0.12 0.04 0.32 c0 0.48 -0.36 0.84 -0.88 0.84 c-0.48 0 -0.84 -0.36 -0.84 -0.84 c0 -0.52 0.36 -0.88 0.84 -0.88 l9.08 0 c0.44 0 0.88 0.4 0.88 0.88 s-0.44 0.84 -0.88 0.84 c-0.48 0 -0.92 -0.36 -0.92 -0.84 c0 -0.16 0.08 -0.24 0.12 -0.36 c-1.24 0.16 -2.08 0.76 -2.08 3.16 l0 13.56 c0 4.52 2.68 7.16 6.68 7.16 c3.68 0 6.56 -2.64 6.56 -7.32 l0 -9.96 c0 -3.4 -0.04 -6.68 -4.32 -6.68 l0 -0.44 z M242.613 26.72 c2.4 0 7.84 0.48 7.84 6.72 c0 6.4 -4.76 6.56 -11.16 6.56 l-7.36 0 l0 -0.32 c1.6 0 2.16 -1.52 2.16 -4.08 l0 -17.12 c0 -1.88 -0.36 -3.36 -1.36 -3.88 c0.04 0.2 0.08 0.36 0.08 0.4 c0 0.48 -0.4 0.84 -0.88 0.84 s-0.88 -0.36 -0.88 -0.84 c0 -0.52 0.4 -0.88 0.88 -0.88 l7.36 0 c5.16 0 9.44 0.32 9.44 6.32 c0 5.72 -5.4 6.28 -6.12 6.28 z M237.893 14.600000000000001 l0 12.08 l2.2 0 c2.24 0 4.68 -0.72 4.68 -6.32 c0 -5.4 -3.08 -5.76 -5.28 -5.76 l-1.6 0 z M237.893 39.52 l1.6 0 c3.52 0 6.88 0.08 6.88 -6.24 c0 -5.96 -3.6 -6.12 -6.28 -6.12 l-2.2 0 l0 12.36 z"/>
  </g>
  <g id="SvgjsG1009" featurekey="sloganFeature-0" transform="matrix(1.227450966835022, 0, 0, 1.227450966835022, 102.4476318359375, 289.9457702636719)" fill="url(#SvgjsLinearGradient1019)">
    <path d="M5.86 13.36 c1.2 0 3.92 0.24 3.92 3.36 c0 3.2 -2.38 3.28 -5.58 3.28 l-3.68 0 l0 -0.16 c0.8 0 1.08 -0.76 1.08 -2.04 l0 -8.56 c0 -0.94 -0.18 -1.68 -0.68 -1.94 c0.02 0.1 0.04 0.18 0.04 0.2 c0 0.24 -0.2 0.42 -0.44 0.42 s-0.44 -0.18 -0.44 -0.42 c0 -0.26 0.2 -0.44 0.44 -0.44 l3.68 0 c2.58 0 4.72 0.16 4.72 3.16 c0 2.86 -2.7 3.14 -3.06 3.14 z M3.5 7.300000000000001 l0 6.04 l1.1 0 c1.12 0 2.34 -0.36 2.34 -3.16 c0 -2.7 -1.54 -2.88 -2.64 -2.88 l-0.8 0 z M3.5 19.76 l0.8 0 c1.76 0 3.44 0.04 3.44 -3.12 c0 -2.98 -1.8 -3.06 -3.14 -3.06 l-1.1 0 l0 6.18 z M28.183500000000002 7.119999999999999 l4.74 0 l0 0.22 c-2.4 0 -2.34 1.64 -2.34 3.34 l0 4.98 c0 3.26 -2.2 4.46 -4.44 4.46 c-2.34 0 -4.22 -1.56 -4.22 -4.54 l0 -6.64 c0 -1.02 -0.34 -1.44 -0.88 -1.54 c0.02 0.02 0.02 0.06 0.02 0.16 c0 0.24 -0.18 0.42 -0.44 0.42 c-0.24 0 -0.42 -0.18 -0.42 -0.42 c0 -0.26 0.18 -0.44 0.42 -0.44 l4.54 0 c0.22 0 0.44 0.2 0.44 0.44 s-0.22 0.42 -0.44 0.42 c-0.24 0 -0.46 -0.18 -0.46 -0.42 c0 -0.08 0.04 -0.12 0.06 -0.18 c-0.62 0.08 -1.04 0.38 -1.04 1.58 l0 6.78 c0 2.26 1.34 3.58 3.34 3.58 c1.84 0 3.28 -1.32 3.28 -3.66 l0 -4.98 c0 -1.7 -0.02 -3.34 -2.16 -3.34 l0 -0.22 z M53.06700000000001 18.14 c0.32 1.36 1.5 1.6 1.96 1.6 l0 0.26 l-1.38 0 c-2.32 0 -2.1 -0.02 -3.1 -4 c-0.54 -1.92 -2.36 -1.92 -2.86 -1.92 l-0.84 0 l0 4.02 c0 1.26 0.38 1.64 1.16 1.64 l0 0.26 l-4.1 0 l0 -0.26 c0.8 0 1.14 -0.36 1.14 -1.88 l0 -9.12 c0 -0.94 -0.18 -1.28 -0.72 -1.36 c0.02 0.04 0.02 0.1 0.02 0.16 c0 0.24 -0.18 0.44 -0.44 0.44 c-0.24 0 -0.42 -0.2 -0.42 -0.44 s0.18 -0.44 0.42 -0.44 l3.5 0 c3.66 0 5.66 0.46 5.66 3.5 c0 2.5 -1.42 3.24 -3.42 3.34 c1.26 0.1 2.46 0.16 3.42 4.2 z M46.84700000000001 13.84 l0.56 0 c2.06 0 3.66 0.02 3.66 -3.24 c0 -3.3 -1.7 -3.24 -3.66 -3.24 l-0.56 0 l0 6.48 z M74.81050000000002 16.18 l0.24 0 l0 3.82 l-9.22 0 l0 -0.24 c0.78 0 1 -0.62 1 -1.9 l0 -8.8 c0 -0.94 -0.12 -1.48 -0.58 -1.66 c0 0.02 0.02 0.06 0.02 0.12 c0 0.24 -0.2 0.42 -0.44 0.42 s-0.44 -0.18 -0.44 -0.42 s0.2 -0.44 0.44 -0.44 l8.98 0 l0 3.32 c0 0.3 -0.14 0.44 -0.44 0.44 c-0.24 0 -0.42 -0.18 -0.42 -0.44 s0.18 -0.44 0.42 -0.44 c0.06 0 0.12 0 0.16 0.02 c-0.48 -2.64 -3.4 -2.66 -4.82 -2.66 l-0.98 0 l0 5.74 l1.16 0 c0.5 0 2.44 0.06 2.54 -1.46 l0.24 0 l0 1.72 l-4 0 l0 0.32 l4 0 l0 1.72 l-0.24 0 c-0.1 -1.54 -2.06 -1.46 -2.54 -1.46 l-1.16 0 l0 5.86 l0.82 0 c1.66 0 4.86 0.1 5.26 -3.58 z M94.674 16.86 l1.4 1.88 c0.86 1.06 2.18 1.02 2.44 1.02 l0 0.24 l-1.96 0 c-1.96 0 -2.44 -0.52 -4.34 -3.34 c-0.72 -1.02 -1.4 -1.96 -1.78 -2.46 l-1.24 1.48 l0 2.38 c0 1.28 0.44 1.7 1.24 1.7 l0 0.24 l-4.3 0 l0 -0.24 c0.78 0 1.2 -0.42 1.2 -1.7 l0 -9.32 c0 -0.94 -0.26 -1.3 -0.8 -1.44 c0.02 0.08 0.04 0.14 0.04 0.2 c0 0.22 -0.2 0.4 -0.44 0.4 s-0.44 -0.18 -0.44 -0.4 c0 -0.26 0.2 -0.44 0.44 -0.44 l4.22 0 c0.24 0 0.42 0.2 0.42 0.44 c0 0.22 -0.22 0.4 -0.44 0.4 c-0.26 0 -0.46 -0.18 -0.46 -0.4 c0 -0.06 0.02 -0.12 0.02 -0.14 c-0.42 0.14 -0.7 0.44 -0.7 1.38 l0 6.22 c0.26 -0.32 0.6 -0.66 0.84 -0.96 l0.42 -0.5 l2.04 -2.46 c1.06 -1.22 3.16 -3.76 0.42 -3.76 l0 -0.22 l5.08 0 c0.24 0 0.42 0.18 0.42 0.44 c0 0.22 -0.18 0.4 -0.42 0.4 s-0.46 -0.18 -0.46 -0.4 c0 -0.06 0.02 -0.14 0.06 -0.2 c-1.18 0.1 -2.36 0.98 -5.94 5.52 c1.06 1.44 2.16 2.92 3.02 4.04 z M140.741 7.9399999999999995 c-0.24 0 -0.44 -0.18 -0.44 -0.42 c0 -0.08 0.02 -0.12 0.02 -0.18 c-0.58 0.14 -1 0.56 -1 1.6 l0 8.88 c0 1.48 0.74 1.9 1.52 1.9 l0 0.24 l-4.68 0 l0 -0.24 c0.76 0 1.34 -0.42 1.34 -1.9 l0 -10.04 l-4.44 12.34 l-0.22 0 l-5.12 -11.18 l0 6.48 c0 2.14 0.32 4.3 2.36 4.3 l0 0.24 l-5.18 0 l0 -0.24 c2.24 0 2.58 -2.24 2.58 -4.3 l0 -6.9 c-0.3 -0.54 -0.64 -0.82 -0.96 -0.96 c-0.02 0.26 -0.18 0.38 -0.44 0.38 c-0.24 0 -0.44 -0.18 -0.44 -0.42 c0 -0.26 0.2 -0.44 0.44 -0.44 l0.02 0 l2.98 0 l4.76 10.34 l3.66 -10.34 l3.24 0 c0.24 0 0.44 0.18 0.44 0.44 c0 0.24 -0.2 0.42 -0.44 0.42 z M161.56449999999998 18.14 c0.32 1.36 1.5 1.6 1.96 1.6 l0 0.26 l-1.38 0 c-2.32 0 -2.1 -0.02 -3.1 -4 c-0.54 -1.92 -2.36 -1.92 -2.86 -1.92 l-0.84 0 l0 4.02 c0 1.26 0.38 1.64 1.16 1.64 l0 0.26 l-4.1 0 l0 -0.26 c0.8 0 1.14 -0.36 1.14 -1.88 l0 -9.12 c0 -0.94 -0.18 -1.28 -0.72 -1.36 c0.02 0.04 0.02 0.1 0.02 0.16 c0 0.24 -0.18 0.44 -0.44 0.44 c-0.24 0 -0.42 -0.2 -0.42 -0.44 s0.18 -0.44 0.42 -0.44 l3.5 0 c3.66 0 5.66 0.46 5.66 3.5 c0 2.5 -1.42 3.24 -3.42 3.34 c1.26 0.1 2.46 0.16 3.42 4.2 z M155.34449999999998 13.84 l0.56 0 c2.06 0 3.66 0.02 3.66 -3.24 c0 -3.3 -1.7 -3.24 -3.66 -3.24 l-0.56 0 l0 6.48 z M177.48799999999997 11.58 l3.04 2 c2.44 1.58 2.86 3.66 1.9 5.16 c-0.18 0.28 -0.42 0.52 -0.74 0.74 c-0.56 0.38 -1.44 0.74 -2.88 0.74 c-1.52 0 -2.58 -0.24 -3.3 -0.5 c-0.42 -0.14 -0.78 -0.32 -1.06 -0.52 l0 -3.52 l0.02 0 l-0.02 -0.02 c0 -0.24 0.2 -0.42 0.44 -0.42 c0.22 0 0.44 0.18 0.44 0.42 c0 0.26 -0.22 0.44 -0.44 0.44 c-0.08 0 -0.14 -0.02 -0.18 -0.04 c0.26 2.08 1.16 3.92 4.1 3.92 c2.8 0 3.12 -3.08 1 -4.62 l-3.04 -1.96 c-1.72 -1.14 -3.38 -2.78 -2 -4.96 c0.18 -0.26 0.44 -0.5 0.76 -0.72 c0.54 -0.38 1.42 -0.72 2.7 -0.72 c1.34 0 2.36 0.22 3.08 0.44 c0.42 0.14 0.8 0.28 1.1 0.44 l0 3.04 l0 0.04 c0 0.22 -0.18 0.44 -0.42 0.44 c-0.26 0 -0.44 -0.22 -0.44 -0.44 c0 -0.24 0.18 -0.46 0.44 -0.46 c0.02 0 0.06 0.04 0.12 0.04 c-0.26 -1.66 -1.06 -3.3 -3.88 -3.3 c-1.98 0 -3.48 2.56 -0.74 4.34 z M203.1515 16.18 l0.24 0 l0 3.82 l-9.22 0 l0 -0.24 c0.78 0 1 -0.62 1 -1.9 l0 -8.8 c0 -0.94 -0.12 -1.48 -0.58 -1.66 c0 0.02 0.02 0.06 0.02 0.12 c0 0.24 -0.2 0.42 -0.44 0.42 s-0.44 -0.18 -0.44 -0.42 s0.2 -0.44 0.44 -0.44 l8.98 0 l0 3.32 c0 0.3 -0.14 0.44 -0.44 0.44 c-0.24 0 -0.42 -0.18 -0.42 -0.44 s0.18 -0.44 0.42 -0.44 c0.06 0 0.12 0 0.16 0.02 c-0.48 -2.64 -3.4 -2.66 -4.82 -2.66 l-0.98 0 l0 5.74 l1.16 0 c0.5 0 2.44 0.06 2.54 -1.46 l0.24 0 l0 1.72 l-4 0 l0 0.32 l4 0 l0 1.72 l-0.24 0 c-0.1 -1.54 -2.06 -1.46 -2.54 -1.46 l-1.16 0 l0 5.86 l0.82 0 c1.66 0 4.86 0.1 5.26 -3.58 z M222.935 7.08 l5.26 0 l0 0.2 c-2.68 0 -2.62 2.66 -2.62 4.36 l0 8.36 l-0.58 0 l-7.8 -10.06 l0 5.48 c0 1.62 0 4.34 2.4 4.34 l0 0.24 l-5.32 0 l0 -0.24 c2.68 0 2.68 -2.7 2.68 -4.34 l0 -5.74 l-0.76 -0.98 c-0.62 -0.78 -1.04 -1.12 -1.38 -1.28 l0 0.1 c0 0.24 -0.22 0.42 -0.46 0.42 s-0.44 -0.18 -0.44 -0.42 c0 -0.26 0.2 -0.44 0.44 -0.44 l0.04 0 l3.04 0 l7.9 10.24 l0 -5.68 c0 -1.7 0.06 -4.36 -2.4 -4.36 l0 -0.2 z"/>
  </g>
</svg>